# xmcd
#
# Track frame offsets: 
#        187
#        17482
#        34147
#        46337
#        60795
#        81337
#        98150
#        122187
#        142355
#        161915
#        172975
#
# Disc length: 2563 seconds
#
# Revision: 1
# Processed by: cddbd v1.5.2PL0 Copyright (c) Steve Scherf et al.
# Submitted via: ExactAudioCopy v0.99pb5
#
DISCID=8f0a010b
DTITLE=Tot Taylor - My Blue Period
DYEAR=1987
DGENRE=Blues
TTITLE0=The Wrong Idea
TTITLE1=It Must Have Been A Craze
TTITLE2=It's Good For You
TTITLE3=It's All A Blur
TTITLE4=Wild Scene
TTITLE5=I'll Wait
TTITLE6=The Compromising Life
TTITLE7=I'll Miss The Lads
TTITLE8=Young World
TTITLE9=It's Not A Bad Old Place
TTITLE10=A Girl Did This
EXTD=YEAR: 1987
EXTT0=
EXTT1=
EXTT2=
EXTT3=
EXTT4=
EXTT5=
EXTT6=
EXTT7=
EXTT8=
EXTT9=
EXTT10=
PLAYORDER=
